<svg fill="none" height="40" viewBox="0 0 39 40" width="39" xmlns="http://www.w3.org/2000/svg">
    <g clip-path="url(#clip0_1_2)">
        <path
            d="M19.368 39.236C30.0646 39.236 38.736 30.5646 38.736 19.868C38.736 9.17135 30.0646 0.5 19.368 0.5C8.67135 0.5 0 9.17135 0 19.868C0 30.5646 8.67135 39.236 19.368 39.236Z"
            fill="#2196F3" />
        <path d="M21.3552 18.4266H17.3528V28.9782H21.3552V18.4266Z" fill="#E3F2FD" />
        <path
            d="M19.368 15.4178C20.651 15.4178 21.691 14.3778 21.691 13.0948C21.691 11.8118 20.651 10.7718 19.368 10.7718C18.085 10.7718 17.045 11.8118 17.045 13.0948C17.045 14.3778 18.085 15.4178 19.368 15.4178Z"
            fill="#E3F2FD" />
    </g>
    <defs>
        <clipPath id="clip0_1_2">
            <rect fill="white" height="38.75" transform="translate(0 0.5)" width="38.75" />
        </clipPath>
    </defs>
</svg>
