<svg fill="none" height="60" viewBox="0 0 60 60" width="60" xmlns="http://www.w3.org/2000/svg">
    <g id="Group 56">
        <path
            d="M30 60C46.5685 60 60 46.5685 60 30C60 13.4315 46.5685 0 30 0C13.4315 0 0 13.4315 0 30C0 46.5685 13.4315 60 30 60Z"
            fill="#E6EDB7" id="Vector" />
        <g id="Group">
            <path
                d="M13.9293 26.6901V29.1168V35.4441V47.2423C13.9293 47.7857 14.3722 48.2286 14.915 48.2286H15.0664C15.6097 48.2286 16.0521 47.7857 16.0521 47.2423V36.2242H18.7393V47.2423C18.7393 47.7857 19.1817 48.2286 19.725 48.2286H19.8759C20.4192 48.2286 20.8622 47.7857 20.8622 47.2423V27.1496C20.8622 27.0396 20.911 26.9445 21.0002 26.8806C21.0893 26.8168 21.195 26.8007 21.2992 26.8361C24.381 27.8825 25.6679 28.7029 29.023 28.8376C29.3011 28.8484 29.5448 28.7566 29.7461 28.5633C29.9469 28.3705 30.0495 28.1305 30.0495 27.8519C30.0495 27.694 30.0495 27.5357 30.0495 27.3778C30.0495 26.8613 29.6543 26.4345 29.1395 26.3948C24.1523 26.0071 21.595 22.5297 16.8752 22.5297C13.9432 22.5297 11.5449 24.928 11.5449 27.8599V29.1168V34.4584C11.5449 35.0017 11.9879 35.4441 12.5307 35.4441H13.9277V29.1168V26.6901"
                id="Vector_2" stroke="#332C2B" stroke-linecap="round" stroke-linejoin="round"
                stroke-miterlimit="22.9256" stroke-width="1.13393" />
            <path clip-rule="evenodd"
                d="M45.3071 11.7671H17.3199C16.7793 11.7671 16.3374 12.209 16.3374 12.7496V31.7025H46.2891V12.7496C46.2891 12.209 45.8472 11.7671 45.3066 11.7671H45.3071Z"
                fill="#67BA8C" fill-rule="evenodd" id="Vector_3" stroke="#332C2B"
                stroke-linecap="round" stroke-linejoin="round" stroke-miterlimit="22.9256"
                stroke-width="1.13393" />
            <path d="M38.1009 20.1308L28.7837 27.8449" id="Vector_4" stroke="#332C2B"
                stroke-linecap="round" stroke-linejoin="round" stroke-miterlimit="22.9256"
                stroke-width="1.13393" />
            <path
                d="M37.0902 31.702H25.3817C19.0566 31.702 13.9292 32.575 13.9292 33.652C13.9292 34.7289 19.0566 35.602 25.3817 35.602H37.0902C43.4153 35.602 48.5427 34.7289 48.5427 33.652C48.5427 32.575 43.4153 31.702 37.0902 31.702Z"
                fill="#F08519" id="Vector_5" stroke="#332C2B" stroke-linecap="round"
                stroke-linejoin="round" stroke-miterlimit="22.9256" stroke-width="1.13393" />
            <path d="M29.3003 14.2803H44.2082V22.6881" id="Vector_6" stroke="#332C2B"
                stroke-linecap="round" stroke-linejoin="round" stroke-miterlimit="22.9256"
                stroke-width="1.13393" />
            <g id="Vector_7">
                <path clip-rule="evenodd"
                    d="M13.8959 35.4463V47.2445C13.8959 48.5626 16.0193 48.5626 16.0193 47.2445V36.2264H18.7059V47.2445C18.7059 48.5626 20.8293 48.5626 20.8293 47.2445V27.1512C20.8293 25.9228 23.851 28.6331 28.9906 28.8392C30.3635 28.8945 30.3817 26.4957 29.1071 26.3964C24.1194 26.0087 21.5622 22.5313 16.8423 22.5313C13.9104 22.5313 11.5121 24.9296 11.5121 27.8616C11.5121 35.9482 10.878 35.4457 13.8953 35.4457L13.8959 35.4463Z"
                    fill="#48BED8" fill-rule="evenodd" />
                <path
                    d="M13.8959 35.4463V47.2445C13.8959 48.5626 16.0193 48.5626 16.0193 47.2445V36.2264H18.7059V47.2445C18.7059 48.5626 20.8293 48.5626 20.8293 47.2445V27.1512C20.8293 25.9228 23.851 28.6331 28.9906 28.8392C30.3635 28.8945 30.3817 26.4957 29.1071 26.3964C24.1194 26.0087 21.5622 22.5313 16.8423 22.5313C13.9104 22.5313 11.5121 24.9296 11.5121 27.8616C11.5121 35.9482 10.878 35.4457 13.8953 35.4457L13.8959 35.4463ZM13.8959 35.4463V26.6922"
                    stroke="#332C2B" stroke-linecap="round" stroke-linejoin="round"
                    stroke-miterlimit="22.9256" stroke-width="1.13393" />
            </g>
            <path
                d="M16.8768 21.2304C18.5524 21.2304 19.9107 19.872 19.9107 18.1964C19.9107 16.5208 18.5524 15.1624 16.8768 15.1624C15.2011 15.1624 13.8428 16.5208 13.8428 18.1964C13.8428 19.872 15.2011 21.2304 16.8768 21.2304Z"
                fill="#FDDBBC" id="Vector_8" stroke="#332C2B" stroke-linecap="round"
                stroke-linejoin="round" stroke-miterlimit="22.9256" stroke-width="1.13393" />
        </g>
    </g>
</svg>
