<svg fill="none" height="37" viewBox="0 0 37 37" width="37" xmlns="http://www.w3.org/2000/svg">
    <g clip-path="url(#clip0_1_45)">
        <path clip-rule="evenodd" d="M32.148 24.2538C28.3565 26.2133 24.6925 28.3958 21.1399 30.7535C19.5947 31.789 18.2406 31.7571 16.6953 30.4508C14.4809 28.5869 12.2666 26.7549 10.0522 24.907C12.4737 26.2611 14.8314 27.7267 17.3007 28.9533C19.276 29.941 21.4745 29.9092 22.2551 28.109C22.3188 27.9338 22.3825 27.7745 22.4303 27.6152C22.6374 26.8186 22.5259 26.0858 22.1754 25.4645C21.7612 24.7158 21.0284 24.1104 20.1522 23.6644C16.8068 21.9757 13.4136 20.3349 10.2434 18.3117C8.41137 17.1488 6.659 16.5115 4.49243 17.8656C2.94716 18.8215 1.49748 19.9048 -0.0159302 20.9084C-0.0159302 24.3813 -0.0159302 27.8382 -0.0159302 31.3111C1.30631 30.3871 2.61262 29.4791 3.93486 28.5551C8.26799 30.9765 12.7286 33.1909 16.9342 35.8035C19.3557 37.3169 21.3311 37.2851 23.5773 35.8035C27.544 33.2068 32.0843 31.4704 35.7802 28.5073C38.1698 26.5956 36.4015 23.0749 33.2313 23.8396C32.8808 23.9193 32.5144 24.0626 32.1321 24.2538H32.148ZM21.1559 27.4559C20.5664 28.7144 19.515 28.6188 18.5432 28.0294C17.9857 26.6115 18.5592 25.6876 19.7858 25.0344C20.901 25.5283 21.7134 26.2611 21.1718 27.4559H21.1559Z"
            fill="#FFB74D"
            fill-rule="evenodd" />
        <path clip-rule="evenodd" d="M21.1718 27.4559C21.7294 26.2611 20.901 25.5283 19.7858 25.0344C18.5751 25.6876 17.9857 26.6115 18.5432 28.0294C19.5309 28.6188 20.5664 28.7144 21.1559 27.4559H21.1718Z"
            fill="#FFCC80"
            fill-rule="evenodd" />
        <path clip-rule="evenodd" d="M20.3593 19.6499C17.1891 16.7027 13.5092 14.2175 10.8647 10.7924C3.99857 1.91908 16.998 -3.0672 20.3593 3.49621C23.7207 -3.0672 36.7201 1.91908 29.854 10.7924C27.2095 14.2175 23.5136 16.6868 20.3593 19.6499Z"
            fill="#FF3D00"
            fill-rule="evenodd" />
        <path clip-rule="evenodd" d="M29.7106 23.1546C27.2414 24.5565 24.8518 26.1177 22.4303 27.6152C22.3825 27.7745 22.3347 27.9497 22.2551 28.109C22.1913 28.2524 22.1276 28.3798 22.048 28.5073C21.1399 29.9092 19.1327 29.8773 17.3006 28.9533C14.8314 27.7108 12.4737 26.2611 10.0522 24.907C12.2666 26.7549 14.4969 28.6029 16.6953 30.4508C18.2565 31.7571 19.5947 31.789 21.1399 30.7535C24.6925 28.3958 28.3565 26.2133 32.148 24.2538C32.5303 24.0626 32.8967 23.9193 33.2472 23.8396C32.5144 22.3262 31.1762 22.3103 29.6947 23.1546H29.7106Z"
            fill="#EDA740"
            fill-rule="evenodd" />
        <path clip-rule="evenodd" d="M22.4303 27.6152C24.8518 26.1336 27.2414 24.5565 29.7106 23.1546C28.8981 22.135 27.8626 22.0076 26.6519 22.7404C25.1544 23.6325 23.6729 24.5565 22.1754 25.4486C22.5259 26.0858 22.6374 26.8027 22.4303 27.5992V27.6152Z"
            fill="#E39D36"
            fill-rule="evenodd" />
    </g>
    <defs>
        <clipPath id="clip0_1_45">
            <rect fill="white" height="36.4199" transform="translate(0 0.5)" width="36.9112" />
        </clipPath>
    </defs>
</svg>
