<?xml version="1.0" encoding="UTF-8" standalone="no"?><!-- Created with Inkscape (http://www.inkscape.org/) -->

<svg xmlns:inkscape="http://www.inkscape.org/namespaces/inkscape"
    xmlns:sodipodi="http://sodipodi.sourceforge.net/DTD/sodipodi-0.dtd" height="32.509998" id="svg5"
    version="1.1" viewBox="0 0 44.585464 8.6016039" width="168.51199"
    xmlns="http://www.w3.org/2000/svg" inkscape:version="1.1.2 (b8e25be833, 2022-02-05)"
    sodipodi:docname="ika-smansara-header-home.svg">
  <sodipodi:namedview bordercolor="#eeeeee" borderopacity="1" height="25px" id="namedview7"
      pagecolor="#505050" showgrid="false" units="px" inkscape:current-layer="layer1"
      inkscape:cx="72.336284" inkscape:cy="51.855529" inkscape:document-units="mm"
      inkscape:pagecheckerboard="0" inkscape:pageopacity="0" inkscape:pageshadow="0"
      inkscape:window-height="1009" inkscape:window-maximized="1" inkscape:window-width="1920"
      inkscape:window-x="-8" inkscape:window-y="-8" inkscape:zoom="4.5896745" />
  <defs id="defs2" />
  <g id="layer1" inkscape:groupmode="layer" inkscape:label="Layer 1">
    <g id="g858" transform="translate(-0.52122344,3.278929)">
      <g style="fill:none" id="g839"
          transform="matrix(0.26458333,0,0,0.26458333,37.169245,-3.2867956)">
        <path clip-rule="evenodd"
            d="M 13.6738,14.8381 C 13.4111,12.5719 13.1097,10.31 12.8858,8.03953 12.5714,4.85294 11.3442,2.99126 9.26038,2.1206 6.20947,0.845699 3.94997,1.65974 1.93106,3.40026 L 1.87449,3.52302 c 0.83963,0.0209 1.67952,0.04153 2.51914,0.05714 1.32578,0.0246 2.37577,0.37885 3.23129,0.97992 1.05886,0.74393 1.89301,1.5929 2.52178,2.51964 0.5617,0.82754 0.9449,1.67967 1.0049,2.63949 0.0615,0.98549 0.2257,1.98149 0.7092,2.95959 0.1872,0.3786 0.1799,0.5741 -0.0787,0.6799 -0.2395,0.0982 -0.4541,-0.0021 -0.6566,-0.3063 -0.031,-0.0463 -0.0615,-0.0977 -0.092,-0.1537 C 10.5841,12.0716 10.2632,11.3052 10.009,10.579 9.97984,10.4957 9.9556,10.4142 9.93709,10.3356 9.87192,10.0594 9.87531,9.81524 9.96967,9.6192 10.2056,9.12819 9.95299,8.78188 9.51636,8.37949 8.04487,7.02231 7.30195,6.61886 6.67399,6.4387 6.63776,6.42838 6.60048,6.44611 6.5851,6.48076 6.56946,6.51542 6.58119,6.55563 6.61273,6.57627 7.26103,7.00247 7.92261,7.48846 8.82688,8.27949 9.19756,8.60357 9.81979,8.99379 9.53617,9.39909 9.2523,9.80466 8.66657,9.45756 8.2753,9.27925 7.24252,8.80834 6.19983,8.35965 5.16209,7.89932 4.57115,7.63714 4.00288,7.65143 3.389,7.73953 1.87449,7.95646 0.904793,7.66624 0.0896713,7.4046 L 0,7.59931 c 0.317499,4.76149 2.63852,6.90569 6.58067,6.99859 2.36508,0.0558 4.72863,0.1601 7.09293,0.24 z M 7.36634,11.6624 C 7.05692,10.8542 6.76314,10.0094 6.6229,9.03427 6.22511,8.85887 5.79918,8.66283 5.34665,8.44722 5.53042,9.30941 5.80726,10.2031 6.2332,11.0766 c 0.226,0.4633 0.55757,0.7519 0.9796,0.7921 0.05318,0.0051 0.10114,-0.0164 0.13347,-0.0598 0.03232,-0.0433 0.03936,-0.096 0.02007,-0.1465 z m 1.72382,0.7939 C 8.57899,11.3222 8.34073,10.5055 8.1898,9.67159 7.83164,9.54195 7.43437,9.38375 6.99957,9.19803 7.16953,10.1335 7.47895,11.174 7.96719,12.2563 c 0.20463,0.454 0.52473,0.7839 0.94572,0.8199 0.19628,0.0166 0.38892,-0.1511 0.17751,-0.6199 z m 1.37924,0.3299 C 10.0111,11.8986 9.75227,10.978 9.54321,10.0568 9.2987,10.0166 9.00779,9.94276 8.67335,9.83641 c 0.18586,0.89549 0.46087,1.85749 0.87977,2.84979 0.16474,0.3905 0.45568,0.622 0.79788,0.5799 0.2393,-0.0293 0.2445,-0.2352 0.1184,-0.4799 z"
            fill="#fefefe" fill-rule="evenodd" id="path824" />
        <path clip-rule="evenodd"
            d="M 14.5334,14.8101 C 14.2962,12.541 14.0978,10.2672 13.822,8.00283 13.4349,4.82444 14.2266,2.73364 16.0692,1.41721 c 2.698,-1.9273 5.079,-1.639991 7.4269,-0.39525 l 0.0818,0.10715 c -0.8143,0.20873 -1.6289,0.4172 -2.4446,0.62065 -1.2874,0.32143 -2.2347,0.90214 -2.938,1.6802 -0.8709,0.96299 -1.4994,1.97809 -1.911,3.02283 -0.3678,0.93309 -0.5558,1.85004 -0.4053,2.79954 0.1545,0.97487 0.2111,1.98337 -0.0475,3.04527 -0.1001,0.4112 -0.0506,0.6001 0.2247,0.6456 0.2549,0.042 0.4424,-0.104 0.5738,-0.4461 0.02,-0.0524 0.0388,-0.109 0.0563,-0.1704 C 16.9446,11.4193 17.0908,10.6 17.1805,9.83488 17.1907,9.74679 17.1967,9.66213 17.1977,9.58144 17.2011,9.2973 17.1448,9.06 17.01,8.88989 16.673,8.46421 16.844,8.06949 17.1821,7.57927 c 1.1396,-1.65348 1.7764,-2.21381 2.3497,-2.53022 0.0328,-0.01826 0.0732,-0.00926 0.0959,0.0209 0.0227,0.03016 0.0201,0.07222 -0.006,0.09947 -0.5396,0.56113 -1.0789,1.18336 -1.7887,2.15773 -0.291,0.39921 -0.8131,0.91933 -0.4481,1.25109 0.3652,0.33175 0.861,-0.1381 1.2037,-0.39975 0.9048,-0.69102 1.824,-1.3622 2.7358,-2.0437 0.5193,-0.38837 1.0766,-0.5016 1.6946,-0.55345 1.5242,-0.12805 2.4068,-0.62859 3.1448,-1.06643 l 0.1298,0.16984 c 0.727,4.71494 -1.0701,7.32665 -4.8947,8.30125 -2.2944,0.5847 -4.5768,1.2162 -6.8653,1.8244 z m 5.4603,-4.5114 c 0.1259,-0.85774 0.2286,-1.74745 0.153,-2.72975 0.3498,-0.26032 0.7223,-0.5471 1.1167,-0.85901 0.0086,0.88229 -0.067,1.81592 -0.2922,2.76329 -0.1197,0.5024 -0.3803,0.85827 -0.7828,0.99207 -0.0508,0.017 -0.1025,0.0066 -0.1431,-0.0283 -0.0409,-0.0349 -0.0595,-0.0849 -0.0516,-0.1383 z m -1.5085,1.1608 c 0.2518,-1.2206 0.306,-2.07066 0.2718,-2.91777 0.3212,-0.20662 0.6741,-0.45028 1.0578,-0.72886 0.0381,0.95056 -0.0372,2.03471 -0.2776,3.19983 -0.1009,0.4886 -0.3412,0.8823 -0.7439,1.0117 -0.1877,0.0603 -0.4122,-0.0604 -0.3079,-0.5649 z m -1.2732,0.631 c 0.2537,-0.9683 0.3058,-1.9244 0.3089,-2.86965 0.2299,-0.09418 0.4974,-0.23149 0.8006,-0.41007 0.0135,0.91537 -0.0451,1.91482 -0.2378,2.97682 -0.0756,0.4177 -0.3089,0.7087 -0.6519,0.7444 -0.2398,0.0249 -0.2899,-0.1743 -0.2198,-0.4415 z"
            fill="#fefefe" fill-rule="evenodd" id="path826" />
        <path clip-rule="evenodd"
            d="m 14.7771,15.598 c 2.1829,-0.5466 4.3754,-1.055 6.5486,-1.64 3.0501,-0.8209 5.1986,-0.3087 6.734,1.3651 2.248,2.4509 2.291,4.884 1.3948,7.414 l -0.0936,0.0968 c -0.3143,-0.7905 -0.6284,-1.5812 -0.9379,-2.3736 -0.4887,-1.2508 -1.1842,-2.1244 -2.0392,-2.726 -1.0583,-0.7447 -2.1346,-1.2389 -3.2104,-1.5109 -0.9609,-0.2428 -1.8816,-0.3074 -2.7879,-0.0272 -0.9309,0.2878 -1.9074,0.4817 -2.9792,0.3659 -0.415,-0.0447 -0.5928,0.0307 -0.5996,0.3137 -0.0062,0.2622 0.1616,0.4307 0.5133,0.5164 0.0537,0.013 0.1118,0.0241 0.1741,0.0334 0.921,0.1365 1.7405,0.1722 2.4998,0.1584 0.0874,-0.0015 0.1708,-0.0071 0.2498,-0.0171 0.2776,-0.0352 0.5015,-0.1241 0.6493,-0.2829 0.3699,-0.3968 0.7784,-0.2783 1.3028,-0.005 1.769,0.9215 2.4021,1.4858 2.789,2.0191 0.0224,0.0307 0.019,0.0725 -0.0073,0.0992 -0.0266,0.027 -0.0678,0.0299 -0.098,0.0074 -0.621,-0.4664 -1.3016,-0.9241 -2.3492,-1.5053 -0.4293,-0.2384 -1.0078,-0.6926 -1.282,-0.2804 -0.2745,0.4121 0.2516,0.8468 0.5537,1.1561 0.7974,0.8159 1.5776,1.649 2.3666,2.4731 0.4497,0.4696 0.6361,1.0143 0.7706,1.6286 0.3318,1.5151 0.9405,2.3347 1.4681,3.0173 l -0.1484,0.1534 c -4.5038,1.3715 -7.2975,-0.0807 -8.7684,-3.7938 -0.8824,-2.2275 -1.8091,-4.4368 -2.7136,-6.6554 z m 5.1457,4.8774 c 0.8542,0.01 1.7368,-0.0077 2.6857,-0.2169 0.3016,0.3161 0.6321,0.6521 0.99,1.0063 -0.8599,0.1283 -1.7817,0.1791 -2.737,0.0815 -0.5068,-0.0518 -0.8894,-0.2656 -1.0748,-0.6524 -0.0234,-0.0487 -0.0206,-0.1021 0.0081,-0.1479 0.0287,-0.0457 0.0748,-0.0714 0.1282,-0.0706 z m -1.338,-1.359 c 1.2259,0.0873 2.0629,0.0264 2.8851,-0.1231 0.2453,0.2948 0.531,0.6167 0.8552,0.9646 -0.9227,0.1672 -1.9912,0.2389 -3.1611,0.1553 -0.4906,-0.0349 -0.9074,-0.2233 -1.0886,-0.6106 -0.0845,-0.1804 0.0029,-0.4225 0.5094,-0.3862 z M 17.796,17.9219 c 0.9796,0.1238 1.9201,0.046 2.8431,-0.0791 0.1231,0.2182 0.2935,0.4685 0.5091,0.7492 -0.8918,0.1381 -1.8753,0.2148 -2.938,0.1654 -0.4181,-0.0194 -0.7338,-0.2146 -0.8154,-0.5546 -0.0568,-0.2378 0.1308,-0.315 0.4012,-0.2809 z"
            fill="#fefefe" fill-rule="evenodd" id="path828" />
      </g>
      <g style="fill:none" id="g850"
          transform="matrix(0.26458333,0,0,0.26458333,0.40906885,1.2764038)">
        <path
            d="M 3.86133,0.351562 V 15 H 0.423828 V 0.351562 Z M 9.4668,15 H 6.0293 V 0.351562 H 9.4668 V 7.01172 C 9.78581,6.54948 10.0885,6.11979 10.375,5.72266 10.668,5.31901 10.9154,4.99349 11.1172,4.74609 l 3.4863,-4.394528 h 4.0527 L 13.2656,7.11914 19.6621,15 H 15.2188 L 11.0684,9.88281 9.4668,11.9043 Z m 13.9941,0 H 19.8574 L 25.6387,0.351562 H 29.252 L 35.0234,15 H 31.4199 L 30.3457,12.1191 H 24.5352 Z M 25.6387,9.12109 H 29.252 L 27.4453,4.31641 Z m 14.375,4.24801 1.6211,-2.6171 c 0.4622,0.3645 0.9017,0.664 1.3183,0.8984 0.4167,0.2279 0.8268,0.3971 1.2305,0.5078 0.4036,0.1107 0.8138,0.166 1.2305,0.166 0.4557,0 0.8463,-0.0586 1.1718,-0.1758 0.3321,-0.1237 0.586,-0.2962 0.7618,-0.5175 0.1822,-0.2214 0.2734,-0.4851 0.2734,-0.7911 0,-0.358 -0.1204,-0.6608 -0.3613,-0.90816 C 47.0189,9.67773 46.6999,9.45638 46.3027,9.26758 45.9121,9.07227 45.4857,8.88021 45.0234,8.69141 44.5547,8.49609 44.0762,8.28451 43.5879,8.05664 43.1061,7.82878 42.6634,7.55208 42.2598,7.22656 41.8561,6.89453 41.5273,6.49414 41.2734,6.02539 41.026,5.55664 40.9023,4.98698 40.9023,4.31641 c 0,-0.88542 0.2214,-1.64388 0.6641,-2.27539 0.4492,-0.63803 1.0612,-1.126306 1.8359,-1.464848 0.7813,-0.345052 1.6635,-0.5175782 2.6465,-0.5175782 0.7162,0 1.4616,0.0944012 2.2364,0.2832032 0.7812,0.188802 1.5657,0.481771 2.3535,0.878903 L 49.3008,3.98438 C 48.832,3.69792 48.3242,3.47331 47.7773,3.31055 47.237,3.14128 46.7324,3.05664 46.2637,3.05664 c -0.3711,0 -0.6966,0.05534 -0.9766,0.16602 -0.2734,0.10416 -0.4883,0.2539 -0.6445,0.44922 -0.1498,0.19531 -0.2246,0.42317 -0.2246,0.68359 0,0.33203 0.1172,0.62174 0.3515,0.86914 0.2409,0.24088 0.5534,0.45898 0.9375,0.6543 0.3841,0.19531 0.8008,0.39388 1.25,0.5957 0.4753,0.20182 0.9571,0.42643 1.4453,0.67383 0.4948,0.24739 0.9473,0.54036 1.3575,0.8789 0.4166,0.33204 0.7487,0.73243 0.9961,1.20118 0.2539,0.46875 0.3808,1.03188 0.3808,1.68948 0,0.8659 -0.2344,1.6308 -0.7031,2.2949 -0.4622,0.6575 -1.1133,1.1686 -1.9531,1.5332 -0.8334,0.3646 -1.8034,0.5469 -2.9102,0.5469 -1.0221,0 -2.0052,-0.1628 -2.9492,-0.4883 -0.9375,-0.332 -1.8066,-0.8106 -2.6074,-1.4356 z M 68.7832,15 H 65.3457 V 5.27344 L 62.0938,12.5391 H 59.5059 L 56.2637,5.30273 V 15 H 52.8262 V 0.351562 h 4.3457 l 3.6328,8.339848 3.623,-8.339848 h 4.3555 z m 4.8535,0 H 70.0332 L 75.8145,0.351562 h 3.6132 L 85.1992,15 h -3.6035 l -1.0742,-2.8809 h -5.8106 z m 2.1778,-5.87891 h 3.6132 L 77.6211,4.31641 Z M 99.9648,15 H 95.9609 L 89.8965,5.6543 V 15 H 86.459 V 0.351562 h 4.0039 L 96.5273,9.7168 V 0.351562 h 3.4375 z m 1.4942,-1.6309 1.621,-2.6171 c 0.462,0.3645 0.902,0.664 1.318,0.8984 0.417,0.2279 0.827,0.3971 1.231,0.5078 0.404,0.1107 0.814,0.166 1.23,0.166 0.456,0 0.847,-0.0586 1.172,-0.1758 0.332,-0.1237 0.586,-0.2962 0.762,-0.5175 0.182,-0.2214 0.273,-0.4851 0.273,-0.7911 0,-0.358 -0.12,-0.6608 -0.361,-0.90816 -0.241,-0.25391 -0.56,-0.47526 -0.957,-0.66406 -0.391,-0.19531 -0.817,-0.38737 -1.279,-0.57617 -0.469,-0.19532 -0.948,-0.4069 -1.436,-0.63477 -0.482,-0.22786 -0.924,-0.50456 -1.328,-0.83008 -0.404,-0.33203 -0.732,-0.73242 -0.986,-1.20117 -0.248,-0.46875 -0.371,-1.03841 -0.371,-1.70898 0,-0.88542 0.221,-1.64388 0.664,-2.27539 0.449,-0.63803 1.061,-1.126306 1.836,-1.464848 0.781,-0.345052 1.663,-0.5175782 2.646,-0.5175782 0.716,0 1.462,0.0944012 2.236,0.2832032 0.782,0.188802 1.566,0.481771 2.354,0.878903 l -1.338,2.76368 c -0.469,-0.28646 -0.976,-0.51107 -1.523,-0.67383 -0.541,-0.16927 -1.045,-0.25391 -1.514,-0.25391 -0.371,0 -0.697,0.05534 -0.977,0.16602 -0.273,0.10416 -0.488,0.2539 -0.644,0.44922 -0.15,0.19531 -0.225,0.42317 -0.225,0.68359 0,0.33203 0.117,0.62174 0.352,0.86914 0.241,0.24088 0.553,0.45898 0.937,0.6543 0.384,0.19531 0.801,0.39388 1.25,0.5957 0.476,0.20182 0.957,0.42643 1.446,0.67383 0.494,0.24739 0.947,0.54036 1.357,0.8789 0.417,0.33204 0.749,0.73243 0.996,1.20118 0.254,0.46875 0.381,1.03188 0.381,1.68948 0,0.8659 -0.234,1.6308 -0.703,2.2949 -0.462,0.6575 -1.113,1.1686 -1.953,1.5332 -0.834,0.3646 -1.804,0.5469 -2.91,0.5469 -1.023,0 -2.006,-0.1628 -2.95,-0.4883 -0.937,-0.332 -1.806,-0.8106 -2.607,-1.4356 z M 116.762,15 h -3.604 l 5.781,-14.648438 h 3.614 L 128.324,15 h -3.603 l -1.075,-2.8809 h -5.81 z m 2.177,-5.87891 h 3.614 L 120.746,4.31641 Z M 141.84,15 h -3.799 l -2.939,-5.06836 h -2.081 V 15 h -3.437 V 0.351562 h 5.732 c 1.224,0 2.269,0.188803 3.135,0.566407 0.866,0.377601 1.527,0.924481 1.983,1.640621 0.462,0.71615 0.693,1.57878 0.693,2.58789 0,0.98308 -0.225,1.82618 -0.674,2.5293 -0.443,0.70313 -1.077,1.24349 -1.904,1.6211 z m -8.819,-7.75391 h 2.032 c 0.833,0 1.468,-0.16601 1.904,-0.49804 0.436,-0.33203 0.654,-0.81381 0.654,-1.44532 0,-0.63802 -0.218,-1.12304 -0.654,-1.45507 -0.436,-0.33204 -1.071,-0.49805 -1.904,-0.49805 h -2.032 z M 145.922,15 h -3.604 L 148.1,0.351562 h 3.613 L 157.484,15 h -3.603 l -1.074,-2.8809 h -5.811 z M 148.1,9.12109 h 3.613 l -1.807,-4.80468 z"
            fill="#ffffff" id="path841" />
      </g>
    </g>
  </g>
</svg>
