<?xml version="1.0" encoding="UTF-8" standalone="no"?>
<!-- Creator: CorelDRAW 2020 (64-Bit) -->

<svg
   xml:space="preserve"
   width="512"
   height="512"
   version="1.1"
   style="clip-rule:evenodd;fill-rule:evenodd;image-rendering:optimizeQuality;shape-rendering:geometricPrecision;text-rendering:geometricPrecision"
   viewBox="0 0 1507.7294 1507.732"
   id="svg3"
   sodipodi:docname="logo_icon_ika.svg"
   inkscape:version="1.3 (0e150ed6c4, 2023-07-21)"
   inkscape:export-filename="logo_icon_ika.png"
   inkscape:export-xdpi="512"
   inkscape:export-ydpi="512"
   xmlns:inkscape="http://www.inkscape.org/namespaces/inkscape"
   xmlns:sodipodi="http://sodipodi.sourceforge.net/DTD/sodipodi-0.dtd"
   xmlns="http://www.w3.org/2000/svg"
   xmlns:svg="http://www.w3.org/2000/svg"><sodipodi:namedview
   id="namedview3"
   pagecolor="#ffffff"
   bordercolor="#000000"
   borderopacity="0.25"
   inkscape:showpageshadow="2"
   inkscape:pageopacity="0.0"
   inkscape:pagecheckerboard="0"
   inkscape:deskcolor="#d1d1d1"
   inkscape:document-units="px"
   inkscape:zoom="1.1336656"
   inkscape:cx="159.21802"
   inkscape:cy="252.72002"
   inkscape:window-width="1920"
   inkscape:window-height="1129"
   inkscape:window-x="-8"
   inkscape:window-y="-8"
   inkscape:window-maximized="1"
   inkscape:current-layer="Layer_x0020_1" />&#10; <defs
   id="defs1">&#10;  <style
   type="text/css"
   id="style1">&#10;   <![CDATA[
    .fil1 {fill:#3D6CB4}
    .fil0 {fill:#D53774}
    .fil2 {fill:#F3B354}
   ]]>&#10;  </style>&#10; </defs>&#10; <g
   id="Layer_x0020_1"
   inkscape:label="Layer 1"
   inkscape:groupmode="layer">&#10;  <metadata
   id="CorelCorpID_0Corel-Layer" />&#10;  <g
   id="_2530809165968"
   transform="matrix(3.2161225,0,0,3.2161225,-0.00632977,95.984828)">&#10;   <path
   class="fil0"
   d="m 103.43,140.49 11.9,41.2 c -21.07,-0.98 -27.3,-35.85 -32.3,-52.56 5.94,2.08 17.95,5.31 20.4,11.36 z m 45.03,15.36 -13.22,-3.17 c 1.88,8.47 5.85,18.14 8.75,26.53 2.48,7.18 5.32,21.16 12.97,23.32 13.92,3.94 2.4,-14.82 0.59,-19.74 -2.99,-8.16 -5.8,-19.14 -9.1,-26.93 z m -40.03,-14.59 c 0.61,3.43 18.54,72.34 33.11,57.39 2.51,-2.58 -8.28,-28.71 -9.94,-34.19 -1.4,-4.59 -1.58,-12.58 -6.59,-16.02 -2.65,-1.82 -13.25,-6.52 -16.58,-7.18 z m -21.05,82.77 126.99,2.79 c 0.62,-8.96 -9.17,-78.25 -10.93,-93.85 C 199.17,95.13 197.35,78.98 177.15,54.71 151.12,23.44 102.76,11.67 61.72,30.28 53.11,34.19 35.8,44.92 31.65,52.48 c 60.11,1.44 81.16,4.19 113.62,39.51 10.47,11.4 23.38,29.02 27.45,48.96 2.29,11.22 3.1,21.89 5.5,33.19 4.69,22 13.89,28.86 3.52,30.13 -5.41,0.66 -8.46,-5.25 -10.78,-9.32 -6.48,-11.36 -11.16,-22.93 -15.41,-35.54 -6.06,-17.97 16.38,-16.15 -24.9,-46.12 -5.57,-4.04 -24.02,-18.95 -33.3,-15.08 6.31,7.02 63.56,32.72 51.2,45.67 -15.68,16.42 -61.41,-30.27 -92.63,-27.02 -22.32,2.32 -34.85,-0.31 -54.65,-3.71 -5.46,30.36 7.68,57.67 20.84,75.17 13.45,17.88 42.88,35.24 65.27,35.73 z"
   id="path1" />&#10;   <path
   class="fil1"
   d="m 316.07,118.76 -2.75,42.79 c 20.36,-5.5 18.94,-40.89 20.22,-58.28 -5.35,3.31 -16.38,9.05 -17.47,15.49 z m -40.66,24.7 12.22,-5.95 c -0.01,8.68 -1.8,18.98 -2.83,27.79 -0.88,7.55 -0.64,21.81 -7.64,25.57 -12.74,6.84 -5.53,-13.95 -4.83,-19.15 1.16,-8.61 1.54,-19.94 3.08,-28.26 z m 35.94,-22.87 c 0.14,3.49 -2.52,74.64 -19.97,63.18 -3.01,-1.98 1.9,-29.82 2.34,-35.52 0.37,-4.78 -1.16,-12.62 2.98,-17.07 2.19,-2.35 11.53,-9.23 14.65,-10.58 z m 38.39,76.3 -123.4,30.08 c -2.54,-8.62 -7.91,-78.38 -9.55,-94.01 -3.98,-37.87 -5.69,-54.03 8.81,-82.09 18.68,-36.14 63.37,-58.05 107.45,-48.73 9.25,1.96 28.47,8.72 34.15,15.2 -58.39,14.36 -78.35,21.57 -102.44,63.06 -7.77,13.39 -16.58,33.38 -16.26,53.73 0.18,11.45 1.69,22.04 1.78,33.6 0.16,22.5 -7.34,31.17 3.05,30.18 5.42,-0.52 7.13,-6.95 8.52,-11.42 3.88,-12.49 5.96,-24.8 7.39,-38.03 2.05,-18.85 -19.47,-12.25 14.38,-50.41 4.57,-5.15 19.38,-23.68 29.27,-21.9 -4.65,8.22 -55.02,45.65 -40.16,55.62 18.85,12.66 53.44,-42.79 84.64,-46.34 22.29,-2.54 33.97,-7.81 52.57,-15.4 11.87,28.47 4.93,57.97 -4.16,77.89 -9.28,20.36 -34.28,43.65 -56.04,48.95 z"
   id="path2" />&#10;   <path
   class="fil2"
   d="m 350.72,311.27 -42.77,3.17 c 8.25,19.41 43.11,13.13 60.51,12.01 -4.02,-4.84 -11.22,-14.98 -17.75,-15.17 z m -30.05,-36.88 7.57,11.29 c -8.6,1.18 -19.04,0.82 -27.91,1.02 -7.6,0.17 -21.69,2.36 -26.38,-4.05 -8.53,-11.68 13.06,-7.4 18.31,-7.42 8.69,-0.04 19.97,-1.22 28.42,-0.84 z m 27.59,32.46 c -3.43,0.62 -74.27,7.77 -65.32,-11.09 1.54,-3.25 29.8,-2.22 35.51,-2.57 4.79,-0.29 12.34,-2.89 17.31,0.61 2.63,1.85 10.72,10.16 12.5,13.05 z M 277.97,355.37 231.2,237.28 c 8.19,-3.7 76.55,-18.61 91.8,-22.39 36.96,-9.15 52.74,-13.07 82.52,-2.56 38.37,13.53 66.21,54.78 63.04,99.73 -0.67,9.44 -4.72,29.4 -10.36,35.91 -22.25,-55.86 -32.14,-74.64 -76.55,-92.79 -14.33,-5.86 -35.34,-11.83 -55.45,-8.71 -11.32,1.76 -21.6,4.71 -33.04,6.38 -22.26,3.25 -31.89,-2.99 -29.47,7.17 1.26,5.3 7.86,6.1 12.48,6.86 12.91,2.13 25.38,2.49 38.68,2.09 18.96,-0.57 9.45,-20.97 51.91,7.31 5.73,3.82 26.12,15.94 25.72,25.98 -8.78,-3.48 -52.78,-48.22 -60.62,-32.13 -9.94,20.41 49.73,47.05 57.54,77.46 5.58,21.73 12.41,32.57 22.48,49.95 -26.57,15.67 -56.74,12.85 -77.72,6.59 -21.44,-6.4 -47.95,-27.95 -56.2,-48.78 z"
   id="path3" />&#10;  </g>&#10; </g>&#10;</svg>
