<svg fill="none" height="64" viewBox="0 0 264 64" width="264" xmlns="http://www.w3.org/2000/svg">
    <path
        d="M7.04199 33.9976V55.9702H1.88574V33.9976H7.04199ZM15.4502 55.9702H10.2939V33.9976H15.4502V43.9878C15.9287 43.2944 16.3828 42.6499 16.8125 42.0542C17.252 41.4487 17.623 40.9604 17.9258 40.5894L23.1553 33.9976H29.2344L21.1484 44.1489L30.7432 55.9702H24.0781L17.8525 48.2944L15.4502 51.3267V55.9702ZM36.4414 55.9702H31.0361L39.708 33.9976H45.1279L53.7852 55.9702H48.3799L46.7686 51.6489H38.0527L36.4414 55.9702ZM39.708 47.1519H45.1279L42.418 39.9448L39.708 47.1519ZM61.2705 53.5239L63.7021 49.5981C64.3955 50.145 65.0547 50.5942 65.6797 50.9458C66.3047 51.2876 66.9199 51.5415 67.5254 51.7075C68.1309 51.8735 68.7461 51.9565 69.3711 51.9565C70.0547 51.9565 70.6406 51.8687 71.1289 51.6929C71.627 51.5073 72.0078 51.2485 72.2715 50.9165C72.5449 50.5845 72.6816 50.189 72.6816 49.73C72.6816 49.1929 72.501 48.7388 72.1396 48.3677C71.7783 47.9868 71.2998 47.6548 70.7041 47.3716C70.1182 47.0786 69.4785 46.7905 68.7852 46.5073C68.082 46.2144 67.3643 45.897 66.6318 45.5552C65.9092 45.2134 65.2451 44.7983 64.6396 44.3101C64.0342 43.812 63.541 43.2114 63.1602 42.5083C62.7891 41.8052 62.6035 40.9507 62.6035 39.9448C62.6035 38.6167 62.9355 37.479 63.5996 36.5317C64.2734 35.5747 65.1914 34.8423 66.3535 34.3345C67.5254 33.8169 68.8486 33.5581 70.3232 33.5581C71.3975 33.5581 72.5156 33.6997 73.6777 33.9829C74.8496 34.2661 76.0264 34.7056 77.208 35.3013L75.2012 39.4468C74.498 39.0171 73.7363 38.6802 72.916 38.436C72.1055 38.1821 71.3486 38.0552 70.6455 38.0552C70.0889 38.0552 69.6006 38.1382 69.1807 38.3042C68.7705 38.4604 68.4482 38.6851 68.2139 38.978C67.9893 39.271 67.877 39.6128 67.877 40.0034C67.877 40.5015 68.0527 40.936 68.4043 41.3071C68.7656 41.6685 69.2344 41.9956 69.8105 42.2886C70.3867 42.5815 71.0117 42.8794 71.6855 43.1821C72.3984 43.4849 73.1211 43.8218 73.8535 44.1929C74.5957 44.564 75.2744 45.0034 75.8896 45.5112C76.5146 46.0093 77.0127 46.6099 77.3838 47.313C77.7646 48.0161 77.9551 48.8608 77.9551 49.8472C77.9551 51.146 77.6035 52.2935 76.9004 53.2896C76.207 54.2759 75.2305 55.0425 73.9707 55.5894C72.7207 56.1362 71.2656 56.4097 69.6055 56.4097C68.0723 56.4097 66.5977 56.1655 65.1816 55.6772C63.7754 55.1792 62.4717 54.4614 61.2705 53.5239ZM104.425 55.9702H99.2686V41.3804L94.3906 52.2788H90.5088L85.6455 41.4243V55.9702H80.4893V33.9976H87.0078L92.457 46.5073L97.8916 33.9976H104.425V55.9702ZM111.705 55.9702H106.3L114.972 33.9976H120.392L129.049 55.9702H123.644L122.032 51.6489H113.316L111.705 55.9702ZM114.972 47.1519H120.392L117.682 39.9448L114.972 47.1519ZM151.197 55.9702H145.191L136.095 41.9517V55.9702H130.938V33.9976H136.944L146.041 48.0454V33.9976H151.197V55.9702ZM153.438 53.5239L155.87 49.5981C156.563 50.145 157.223 50.5942 157.848 50.9458C158.473 51.2876 159.088 51.5415 159.693 51.7075C160.299 51.8735 160.914 51.9565 161.539 51.9565C162.223 51.9565 162.809 51.8687 163.297 51.6929C163.795 51.5073 164.176 51.2485 164.439 50.9165C164.713 50.5845 164.85 50.189 164.85 49.73C164.85 49.1929 164.669 48.7388 164.308 48.3677C163.946 47.9868 163.468 47.6548 162.872 47.3716C162.286 47.0786 161.646 46.7905 160.953 46.5073C160.25 46.2144 159.532 45.897 158.8 45.5552C158.077 45.2134 157.413 44.7983 156.808 44.3101C156.202 43.812 155.709 43.2114 155.328 42.5083C154.957 41.8052 154.771 40.9507 154.771 39.9448C154.771 38.6167 155.104 37.479 155.768 36.5317C156.441 35.5747 157.359 34.8423 158.521 34.3345C159.693 33.8169 161.017 33.5581 162.491 33.5581C163.565 33.5581 164.684 33.6997 165.846 33.9829C167.018 34.2661 168.194 34.7056 169.376 35.3013L167.369 39.4468C166.666 39.0171 165.904 38.6802 165.084 38.436C164.273 38.1821 163.517 38.0552 162.813 38.0552C162.257 38.0552 161.769 38.1382 161.349 38.3042C160.938 38.4604 160.616 38.6851 160.382 38.978C160.157 39.271 160.045 39.6128 160.045 40.0034C160.045 40.5015 160.221 40.936 160.572 41.3071C160.934 41.6685 161.402 41.9956 161.979 42.2886C162.555 42.5815 163.18 42.8794 163.854 43.1821C164.566 43.4849 165.289 43.8218 166.021 44.1929C166.764 44.564 167.442 45.0034 168.058 45.5112C168.683 46.0093 169.181 46.6099 169.552 47.313C169.933 48.0161 170.123 48.8608 170.123 49.8472C170.123 51.146 169.771 52.2935 169.068 53.2896C168.375 54.2759 167.398 55.0425 166.139 55.5894C164.889 56.1362 163.434 56.4097 161.773 56.4097C160.24 56.4097 158.766 56.1655 157.35 55.6772C155.943 55.1792 154.64 54.4614 153.438 53.5239ZM176.393 55.9702H170.987L179.659 33.9976H185.079L193.736 55.9702H188.331L186.72 51.6489H178.004L176.393 55.9702ZM179.659 47.1519H185.079L182.369 39.9448L179.659 47.1519ZM214.01 55.9702H208.312L203.902 48.3677H200.782V55.9702H195.626V33.9976H204.225C206.061 33.9976 207.628 34.2808 208.927 34.8472C210.226 35.4136 211.217 36.2339 211.9 37.3081C212.594 38.3823 212.94 39.6763 212.94 41.1899C212.94 42.6646 212.604 43.9292 211.93 44.9839C211.266 46.0386 210.313 46.8491 209.073 47.4155L214.01 55.9702ZM200.782 44.3394H203.829C205.079 44.3394 206.031 44.0903 206.686 43.5923C207.34 43.0942 207.667 42.3716 207.667 41.4243C207.667 40.4673 207.34 39.7397 206.686 39.2417C206.031 38.7437 205.079 38.4946 203.829 38.4946H200.782V44.3394ZM220.133 55.9702H214.728L223.399 33.9976H228.819L237.477 55.9702H232.071L230.46 51.6489H221.744L220.133 55.9702ZM223.399 47.1519H228.819L226.109 39.9448L223.399 47.1519Z"
        fill="black" />
    <path clip-rule="evenodd" d="M231.348 29.617C230.822 25.0846 230.22 20.5607 229.772 16.0198C229.143 9.64659 226.688 5.9232 222.521 4.18188C216.419 1.63207 211.9 3.26016 207.862 6.74121L207.749 6.98672C209.428 7.02853 211.108 7.0698 212.787 7.10101C215.439 7.15022 217.539 7.85871 219.25 9.06086C221.368 10.5487 223.036 12.2467 224.293 14.1002C225.417 15.7552 226.183 17.4595 226.303 19.3792C226.426 21.3501 226.755 23.3422 227.722 25.2984C228.096 26.0556 228.082 26.4466 227.564 26.6582C227.085 26.8545 226.656 26.654 226.251 26.0455C226.189 25.9529 226.128 25.8503 226.067 25.7381C225.168 24.0841 224.526 22.5512 224.018 21.0988C223.96 20.9321 223.911 20.7692 223.874 20.612C223.744 20.0596 223.751 19.5712 223.939 19.1792C224.411 18.1971 223.906 17.5045 223.033 16.6997C220.09 13.9853 218.604 13.1784 217.348 12.8181C217.276 12.7975 217.201 12.8329 217.17 12.9022C217.139 12.9716 217.162 13.052 217.226 13.0933C218.522 13.9457 219.845 14.9177 221.654 16.4997C222.395 17.1479 223.64 17.9283 223.072 18.7389C222.505 19.5501 221.333 18.8559 220.551 18.4992C218.485 17.5574 216.4 16.66 214.324 15.7394C213.142 15.215 212.006 15.2436 210.778 15.4198C207.749 15.8537 205.81 15.2732 204.179 14.7499L204 15.1394C204.635 24.6624 209.277 28.9509 217.161 29.1366C221.892 29.2482 226.619 29.4567 231.347 29.6165L231.348 29.617ZM218.733 23.2655C218.114 21.6491 217.526 19.9596 217.246 18.0093C216.45 17.6585 215.598 17.2664 214.693 16.8352C215.061 18.5596 215.615 20.3469 216.466 22.0941C216.918 23.0205 217.582 23.5978 218.426 23.6782C218.532 23.6883 218.628 23.6454 218.693 23.5587C218.757 23.4719 218.771 23.3666 218.733 23.2655ZM222.18 24.8534C221.158 22.5851 220.682 20.9517 220.38 19.2839C219.663 19.0247 218.869 18.7082 217.999 18.3368C218.339 20.2078 218.958 22.2888 219.934 24.4534C220.344 25.3614 220.984 26.0212 221.826 26.0931C222.218 26.1265 222.604 25.791 222.181 24.8534H222.18ZM224.939 25.5132C224.022 23.738 223.505 21.8967 223.087 20.0543C222.597 19.9739 222.016 19.8263 221.347 19.6136C221.718 21.4046 222.269 23.3285 223.106 25.3132C223.436 26.0942 224.018 26.5572 224.702 26.473C225.181 26.4143 225.191 26.0026 224.939 25.5132Z"
        fill="#BC2692"
        fill-rule="evenodd" />
    <path clip-rule="evenodd" d="M233.067 29.561C232.593 25.0227 232.196 20.475 231.644 15.9463C230.87 9.58947 232.453 5.40786 236.139 2.77498C241.535 -1.07963 246.297 -0.505013 250.992 1.98448L251.156 2.19877C249.527 2.61625 247.898 3.03319 246.267 3.44008C243.692 4.08296 241.797 5.24437 240.391 6.8005C238.649 8.72648 237.392 10.7567 236.569 12.8462C235.833 14.7124 235.457 16.5463 235.758 18.4453C236.067 20.3951 236.18 22.4121 235.663 24.536C235.463 25.3582 235.562 25.736 236.113 25.827C236.623 25.9111 236.997 25.6191 237.26 24.9349C237.3 24.8301 237.338 24.7169 237.373 24.5942C237.889 22.7793 238.182 21.1406 238.361 19.6104C238.382 19.4342 238.394 19.2649 238.396 19.1035C238.402 18.5352 238.29 18.0606 238.02 17.7204C237.346 16.8691 237.688 16.0796 238.364 15.0992C240.644 11.7922 241.917 10.6715 243.064 10.0387C243.129 10.0022 243.21 10.0202 243.256 10.0805C243.301 10.1408 243.296 10.2249 243.244 10.2794C242.164 11.4017 241.086 12.6462 239.666 14.5949C239.084 15.3933 238.04 16.4336 238.77 17.0971C239.5 17.7606 240.492 16.8209 241.178 16.2976C242.987 14.9156 244.825 13.5732 246.649 12.2102C247.688 11.4334 248.802 11.207 250.038 11.1033C253.087 10.8472 254.852 9.84609 256.328 8.9704L256.588 9.3101C258.042 18.74 254.447 23.9634 246.798 25.9127C242.209 27.0821 237.644 28.3451 233.068 29.5615L233.067 29.561ZM243.988 20.5379C244.239 18.8226 244.445 17.0431 244.294 15.0785C244.993 14.5579 245.738 13.9843 246.527 13.3605C246.544 15.1251 246.393 16.9923 245.943 18.8871C245.703 19.8919 245.182 20.6036 244.377 20.8713C244.275 20.9052 244.172 20.8845 244.091 20.8147C244.009 20.7448 243.972 20.6448 243.988 20.5379ZM240.971 22.8597C241.474 20.4184 241.583 18.7183 241.514 17.0241C242.157 16.6108 242.863 16.1235 243.63 15.5664C243.706 17.4675 243.555 19.6358 243.075 21.966C242.873 22.9433 242.392 23.7306 241.587 23.9894C241.211 24.11 240.763 23.8687 240.971 22.8597H240.971ZM238.424 24.1217C238.932 22.1851 239.036 20.2729 239.042 18.3823C239.502 18.194 240.037 17.9194 240.643 17.5622C240.67 19.3929 240.553 21.3919 240.168 23.5158C240.017 24.3513 239.55 24.9333 238.864 25.0047C238.384 25.0545 238.284 24.6561 238.424 24.1217Z"
        fill="#104993"
        fill-rule="evenodd" />
    <path clip-rule="evenodd" d="M233.554 31.1367C237.92 30.0436 242.305 29.0266 246.652 27.8567C252.752 26.2149 257.049 27.2393 260.119 30.587C264.616 35.4887 264.702 40.355 262.909 45.4149L262.722 45.6086C262.093 44.0276 261.465 42.4461 260.846 40.8614C259.869 38.3597 258.478 36.6126 256.768 35.4093C254.651 33.9199 252.498 32.9315 250.347 32.3876C248.425 31.9018 246.584 31.7727 244.771 32.3331C242.909 32.9087 240.956 33.2966 238.813 33.0648C237.983 32.9754 237.627 33.1262 237.613 33.6924C237.601 34.2167 237.937 34.5538 238.64 34.7252C238.747 34.7511 238.864 34.7733 238.988 34.7919C240.83 35.0649 242.469 35.1363 243.988 35.1088C244.163 35.1056 244.329 35.0945 244.487 35.0744C245.043 35.004 245.49 34.8263 245.786 34.5088C246.526 33.7151 247.343 33.9522 248.392 34.4987C251.93 36.3417 253.196 37.4703 253.97 38.537C254.014 38.5983 254.008 38.6819 253.955 38.7354C253.902 38.7893 253.82 38.7952 253.759 38.7502C252.517 37.8174 251.156 36.902 249.061 35.7395C248.202 35.2628 247.045 34.3543 246.497 35.1786C245.948 36.003 247 36.8724 247.604 37.4909C249.199 39.1227 250.759 40.7889 252.337 42.4371C253.237 43.3763 253.609 44.4657 253.878 45.6943C254.542 48.7246 255.759 50.3638 256.815 51.7289L256.518 52.0358C247.51 54.7787 241.923 51.8744 238.981 44.4482C237.216 39.9931 235.363 35.5744 233.554 31.1373L233.554 31.1367ZM243.846 40.8915C245.554 40.9116 247.319 40.8762 249.217 40.4576C249.82 41.0899 250.481 41.7619 251.197 42.4704C249.477 42.727 247.634 42.8286 245.723 42.6334C244.709 42.5297 243.944 42.1021 243.573 41.3286C243.527 41.2312 243.532 41.1243 243.59 41.0328C243.647 40.9413 243.739 40.8899 243.846 40.8915H243.846ZM241.17 38.1735C243.621 38.3481 245.295 38.2264 246.94 37.9274C247.43 38.5168 248.002 39.1608 248.65 39.8566C246.805 40.191 244.668 40.3344 242.328 40.1672C241.347 40.0973 240.513 39.7206 240.151 38.946C239.982 38.5851 240.157 38.101 241.17 38.1735ZM239.592 35.7845C241.551 36.0321 243.432 35.8766 245.278 35.6263C245.524 36.0628 245.865 36.5633 246.296 37.1247C244.513 37.4009 242.546 37.5544 240.42 37.4554C239.584 37.4168 238.953 37.0263 238.79 36.3464C238.676 35.8707 239.051 35.7162 239.592 35.7845Z"
        fill="#FE9B27"
        fill-rule="evenodd" />
</svg>
