<?xml version="1.0" encoding="UTF-8" standalone="no"?>
<svg xmlns:inkscape="http://www.inkscape.org/namespaces/inkscape" xmlns:sodipodi="http://sodipodi.sourceforge.net/DTD/sodipodi-0.dtd"
    fill="none" height="35" id="svg23" version="1.1" viewBox="0 0 35 35" width="35" xmlns="http://www.w3.org/2000/svg"
    inkscape:version="1.1.2 (b8e25be833, 2022-02-05)" sodipodi:docname="money.svg">
    <sodipodi:namedview bordercolor="#eeeeee" borderopacity="1" id="namedview25" pagecolor="#505050"
        showgrid="false" inkscape:current-layer="svg23" inkscape:cx="19.5"
        inkscape:cy="19.5" inkscape:pagecheckerboard="0" inkscape:pageopacity="0" inkscape:pageshadow="0"
        inkscape:window-height="1009" inkscape:window-maximized="1" inkscape:window-width="1920"
        inkscape:window-x="-8" inkscape:window-y="-8" inkscape:zoom="16.512821" />
    <g clip-path="url(#clip0_1_17)" id="g16"
        transform="matrix(0.88951815,0,0,0.88951815,0.24323926,0.24276965)">
        <path d="M 38.8,0.5 H 2.44141e-4 V 21.9548 H 38.8 Z" fill="#388e3c" id="path2" />
        <path clip-rule="evenodd" d="m 2.75175,6.22361 c 1.77629,0 3.22751,-1.43961 3.22751,-3.22751 0,-0.18576 -0.01161,-0.37151 -0.04644,-0.54566 H 1.90424 v 3.65707 c 0.26702,0.06966 0.55726,0.1161 0.84751,0.1161 z"
            fill="#388e3c"
            fill-rule="evenodd" id="path4" />
        <path clip-rule="evenodd" d="m 5.77029,19.1569 c 0,-1.7763 -1.4396,-3.2275 -3.22751,-3.2275 -0.22058,0 -0.44117,0.0232 -0.65014,0.0696 v 4.0054 H 5.6542 c 0.06965,-0.2671 0.11609,-0.5573 0.11609,-0.8475 z"
            fill="#388e3c"
            fill-rule="evenodd" id="path6" />
        <path clip-rule="evenodd" d="m 36.3039,16.0222 c -1.7763,0 -3.2275,1.4396 -3.2275,3.2275 0,0.2555 0.0348,0.5109 0.0929,0.7547 h 3.7383 v -3.9241 c -0.1973,-0.0348 -0.3947,-0.0581 -0.6037,-0.0581 z"
            fill="#388e3c"
            fill-rule="evenodd" id="path8" />
        <path clip-rule="evenodd" d="m 33.03,3.10059 c 0,1.77629 1.4396,3.2275 3.2275,3.2275 0.2206,0 0.4411,-0.02322 0.6501,-0.06965 v -3.808 h -3.808 C 33.0532,2.65941 33.03,2.88 33.03,3.10059 Z"
            fill="#388e3c"
            fill-rule="evenodd" id="path10" />
        <path clip-rule="evenodd" d="m 19.4001,38.3013 -8.6492,-9.6012 h 5.7004 v -6.7453 h 2.9488 2.9489 v 6.7453 h 5.7004 z"
            fill="#ffc400"
            fill-rule="evenodd" id="path12" />
        <path clip-rule="evenodd" d="m 7.75555,9.40468 c 1.01004,0 1.82273,0.81272 1.82273,1.82272 0,1.0101 -0.81269,1.8227 -1.82273,1.8227 -1.01005,0 -1.82273,-0.8126 -1.82273,-1.8227 0,-1.01 0.81268,-1.82272 1.82273,-1.82272 z M 5.66579,20.0044 H 33.1693 c -0.0581,-0.2438 -0.0929,-0.4876 -0.0929,-0.7547 0,-1.7763 1.4396,-3.2275 3.2275,-3.2275 0.209,0 0.4063,0.0232 0.6037,0.0581 V 6.25844 c -0.209,0.04643 -0.4296,0.06965 -0.6501,0.06965 -1.7763,0 -3.2275,-1.4396 -3.2275,-3.2275 0,-0.22059 0.0232,-0.44118 0.0696,-0.65015 H 5.93282 c 0.03483,0.17415 0.04644,0.3599 0.04644,0.54566 0,1.77629 -1.43961,3.22751 -3.22751,3.22751 -0.29025,0 -0.58049,-0.03483 -0.84751,-0.1161 v 9.87989 c 0.20897,-0.0464 0.42956,-0.0697 0.65014,-0.0697 1.77629,0 3.22751,1.4396 3.22751,3.2275 0,0.2903 -0.03483,0.5805 -0.1161,0.8476 z m 6.96581,-8.777 c 0,-3.73833 3.0302,-6.78008 6.7801,-6.78008 3.7384,0 6.7801,3.03014 6.7801,6.78008 0,3.7383 -3.0301,6.7801 -6.7801,6.7801 -3.7383,0 -6.7801,-3.0301 -6.7801,-6.7801 z m 16.7065,0 c 0,-1.01 0.8126,-1.82272 1.8227,-1.82272 1.01,0 1.8227,0.81272 1.8227,1.82272 0,1.0101 -0.8127,1.8227 -1.8227,1.8227 -1.0101,0 -1.8227,-0.8126 -1.8227,-1.8227 z"
            fill="#a5d6a7"
            fill-rule="evenodd" id="path14" />
    </g>
    <defs id="defs21">
        <clipPath id="clip0_1_17">
            <rect fill="#ffffff" height="37.8013" id="rect18" transform="translate(0,0.5)"
                width="38.800301" x="0" y="0" />
        </clipPath>
    </defs>
</svg>
