<svg fill="none" height="60" viewBox="0 0 60 60" width="60" xmlns="http://www.w3.org/2000/svg">
    <g id="Group 59">
        <g id="Layer_x0020_1">
            <g id="_2562769968592">
                <path
                    d="M30 60C46.5685 60 60 46.5685 60 30C60 13.4315 46.5685 0 30 0C13.4315 0 0 13.4315 0 30C0 46.5685 13.4315 60 30 60Z"
                    fill="#CEE1F4" id="Vector" />
                <path clip-rule="evenodd"
                    d="M26.35 33.0922C26.3425 34.5846 26.3375 36.077 26.33 37.5694C26.645 41.9115 25.9476 45.2412 24.1577 47.4785C28.3099 47.4785 32.462 47.4785 36.6142 47.4785C33.8544 44.9387 33.6569 40.8241 33.9469 36.4095C33.287 34.8071 32.627 33.2047 31.9671 31.6024C30.0947 32.0998 28.2249 32.5973 26.3525 33.0947L26.35 33.0922Z"
                    fill="#B97853" fill-rule="evenodd" id="Vector_2" stroke="#332C2B"
                    stroke-linecap="round" stroke-linejoin="round" stroke-miterlimit="22.9256"
                    stroke-width="1.13513" />
                <path d="M49.8586 47.4785H11.1743" id="Vector_3" stroke="#332C2B"
                    stroke-linecap="round" stroke-linejoin="round" stroke-miterlimit="22.9256"
                    stroke-width="1.13513" />
                <path clip-rule="evenodd"
                    d="M15.649 30.8999C10.9994 30.14 8.89459 25.7829 13.0168 21.7782C12.3668 16.0962 14.8641 13.0164 19.5962 11.779C20.6761 8.34681 23.9258 7.1719 27.4031 8.97175C30.1453 7.31189 34.3975 7.70936 36.6148 10.5516C40.8819 9.97917 42.9043 11.444 42.9293 15.2887C52.3535 19.1984 50.9386 27.6927 42.9293 31.6049C41.9993 36.212 37.9222 37.6419 33.0176 36.167C28.158 38.9318 24.3683 37.9043 21.6135 34.2372C18.6588 34.4796 16.2615 33.9397 15.649 30.9024V30.8999Z"
                    fill="#60BE92" fill-rule="evenodd" id="Vector_4" stroke="#332C2B"
                    stroke-linecap="round" stroke-linejoin="round" stroke-miterlimit="22.9256"
                    stroke-width="1.13513" />
                <path d="M41.3491 28.5301C45.9512 26.9728 46.8912 23.9755 44.9463 19.8459"
                    id="Vector_5" stroke="#332C2B" stroke-linecap="round" stroke-linejoin="round"
                    stroke-miterlimit="22.9256" stroke-width="1.13513" />
                <path d="M23.6304 31.8648C25.9452 34.4596 28.7824 35.557 32.7346 33.4722"
                    id="Vector_6" stroke="#332C2B" stroke-linecap="round" stroke-linejoin="round"
                    stroke-miterlimit="22.9256" stroke-width="1.13513" />
                <path d="M18.8931 21.2507C19.448 25.6354 22.8127 27.2152 27.1399 25.4604"
                    id="Vector_7" stroke="#332C2B" stroke-linecap="round" stroke-linejoin="round"
                    stroke-miterlimit="22.9256" stroke-width="1.13513" />
                <path d="M27.0527 19.0584C29.77 21.6557 32.6098 21.7232 35.562 19.4084"
                    id="Vector_8" stroke="#332C2B" stroke-linecap="round" stroke-linejoin="round"
                    stroke-miterlimit="22.9256" stroke-width="1.13513" />
                <path d="M32.1924 38.6418C32.1924 38.6418 31.9299 41.2291 32.5873 42.5465"
                    id="Vector_9" stroke="#332C2B" stroke-linecap="round" stroke-linejoin="round"
                    stroke-miterlimit="22.9256" stroke-width="1.13513" />
                <path d="M32.8945 43.9913C32.8945 43.9913 33.0695 45.3062 33.552 45.8762"
                    id="Vector_10" stroke="#332C2B" stroke-linecap="round" stroke-linejoin="round"
                    stroke-miterlimit="22.9256" stroke-width="1.13513" />
                <path d="M28.1577 45.0013C28.1577 45.0013 27.8502 46.8411 27.2803 47.4785"
                    id="Vector_11" stroke="#332C2B" stroke-linecap="round" stroke-linejoin="round"
                    stroke-miterlimit="22.9256" stroke-width="1.13513" />
            </g>
        </g>
    </g>
</svg>
