<?xml version="1.0" encoding="UTF-8" standalone="no"?>
<svg xmlns:inkscape="http://www.inkscape.org/namespaces/inkscape" xmlns:sodipodi="http://sodipodi.sourceforge.net/DTD/sodipodi-0.dtd"
    fill="none" height="35" id="svg23" version="1.1" viewBox="0 0 35 35" width="35" xmlns="http://www.w3.org/2000/svg"
    inkscape:version="1.1.2 (b8e25be833, 2022-02-05)" sodipodi:docname="person.svg">
    <sodipodi:namedview bordercolor="#eeeeee" borderopacity="1" id="namedview25" pagecolor="#505050"
        showgrid="false" inkscape:current-layer="svg23" inkscape:cx="16.024845"
        inkscape:cy="20" inkscape:pagecheckerboard="0" inkscape:pageopacity="0" inkscape:pageshadow="0"
        inkscape:window-height="1009" inkscape:window-maximized="1" inkscape:window-width="1920"
        inkscape:window-x="-8" inkscape:window-y="-8" inkscape:zoom="16.1" />
    <g clip-path="url(#clip0_1_36)" id="g16"
        transform="matrix(0.88523518,0,0,0.88523518,3.6679348,-0.04883489)">
        <path clip-rule="evenodd" d="m 23.8542,13.2955 c 0.2402,-0.128 0.5283,-0.2081 0.8165,-0.2081 1.0086,0 1.8251,0.9126 1.8251,2.0172 0,1.1207 -0.8165,2.0172 -1.8251,2.0172 -0.08,0 -0.1601,0 -0.2241,-0.016 -0.4323,4.0824 -4.1465,7.2684 -8.6612,7.2684 -4.5147,0 -8.21288,-3.186 -8.66115,-7.2684 -0.08005,0.016 -0.14409,0.016 -0.22413,0.016 -1.00861,0 -1.82509,-0.9125 -1.82509,-2.0172 0,-1.1206 0.81648,-2.0172 1.82509,-2.0172 0.28817,0 0.56033,0.0801 0.81648,0.2081 0.24015,0.1281 -0.80047,-2.3854 -0.80047,-2.3854 0,0 1.64898,-2.97776 1.79307,-3.07382 0.14408,-0.09605 6.0516,-1.82508 6.2437,-1.92114 0.1921,-0.09606 3.7302,-0.99259 3.9064,-0.99259 0.1761,0 2.7216,1.16869 2.7216,1.16869 l 1.8571,1.68101 c 0,0 1.0246,1.61696 1.0246,1.77706 0,0.14408 0.1281,1.87309 0.1281,1.87309 l -0.7205,1.8892 z"
            fill="#ffca28"
            fill-rule="evenodd" id="path2" />
        <path clip-rule="evenodd" d="m 15.6734,32.5871 c -3.5702,0 -6.46791,-2.3054 -6.46791,-5.1391 0,-0.1121 0,-0.2241 0.01601,-0.3362 C 4.00239,28.6967 1.0086,32.7952 0,39.135 c 10.4222,0 20.8284,0 31.2506,0 -0.4162,-6.1477 -3.6341,-10.022 -9.1094,-12.0392 0.016,0.112 0.016,0.2401 0.016,0.3522 0,2.8337 -2.8977,5.1391 -6.4678,5.1391 z"
            fill="#4fc3f7"
            fill-rule="evenodd" id="path4" />
        <path
            d="m 11.783,16.0332 c 0.5482,0 0.9926,-0.4444 0.9926,-0.9926 0,-0.5482 -0.4444,-0.9926 -0.9926,-0.9926 -0.5482,0 -0.9926,0.4444 -0.9926,0.9926 0,0.5482 0.4444,0.9926 0.9926,0.9926 z"
            fill="#784719" id="path6" />
        <path
            d="m 19.5317,16.0332 c 0.5481,0 0.9925,-0.4444 0.9925,-0.9926 0,-0.5482 -0.4444,-0.9926 -0.9925,-0.9926 -0.5482,0 -0.9926,0.4444 -0.9926,0.9926 0,0.5482 0.4444,0.9926 0.9926,0.9926 z"
            fill="#784719" id="path8" />
        <path clip-rule="evenodd" d="m 15.7694,30.4738 c -2.2894,0 -4.2265,-1.601 -4.7868,-3.7943 -0.6084,0.1121 -1.20076,0.2562 -1.77711,0.4323 -0.01601,0.1121 -0.01601,0.2241 -0.01601,0.3362 0,2.8337 2.89772,5.1391 6.46782,5.1391 3.5702,0 6.4679,-2.3054 6.4679,-5.1391 0,-0.1121 0,-0.2402 -0.016,-0.3522 -0.5123,-0.1921 -1.0406,-0.4483 -1.5689,-0.4483 -0.5604,2.1933 -2.4975,3.8103 -4.8029,3.8103 z"
            fill="#01579b"
            fill-rule="evenodd" id="path10" />
        <path clip-rule="evenodd" d="m 10.8225,26.6795 c 0.5923,2.1773 2.5935,3.7943 4.9629,3.7943 2.3854,0 4.3866,-1.617 4.963,-3.8103 v -3.7142 c -1.4089,0.9126 -3.1219,1.4409 -4.963,1.4409 -1.8411,0 -3.5541,-0.5283 -4.9629,-1.4409 z"
            fill="#edb405"
            fill-rule="evenodd" id="path12" />
        <path clip-rule="evenodd" d="m 23.55,14.9926 c 0,-1.537 0,-3.0739 0,-4.5948 C 22.2693,9.00499 20.9885,7.59615 19.7078,6.20331 15.7694,7.59615 11.8471,9.00499 7.90871,10.3978 c 0,1.585 0,3.1699 0,4.7549 C 7.28434,14.5443 6.65997,13.9519 6.01958,13.3436 5.47526,2.95338 10.8385,0.135694 18.6992,0.551943 18.9233,1.1443 19.1314,1.75266 19.3555,2.34501 c 5.027,0.62438 6.2278,5.09104 6.0356,10.91849 -0.6083,0.5764 -1.2327,1.1527 -1.8411,1.7291 z"
            fill="#424242"
            fill-rule="evenodd" id="path14" />
    </g>
    <defs id="defs21">
        <clipPath id="clip0_1_36">
            <rect fill="#ffffff" height="38.638901" id="rect18" transform="translate(0,0.5)"
                width="31.250601" x="0" y="0" />
        </clipPath>
    </defs>
</svg>
