<svg fill="none" height="60" viewBox="0 0 60 60" width="60" xmlns="http://www.w3.org/2000/svg">
    <g id="Group 58">
        <g id="Layer_x0020_1">
            <g id="_2562764635344">
                <path
                    d="M30 60C46.5685 60 60 46.5685 60 30C60 13.4315 46.5685 0 30 0C13.4315 0 0 13.4315 0 30C0 46.5685 13.4315 60 30 60Z"
                    fill="#CEE1F4" id="Vector" />
                <path clip-rule="evenodd"
                    d="M15.3101 31.5514L21.3688 41.2039C21.3867 41.2003 21.4011 41.2003 21.419 41.1967C21.7235 40.9387 21.9349 40.455 22.3362 40.4192C25.285 40.1576 27.3344 39.0648 27.7106 35.2884C27.9937 32.4543 28.2481 29.6202 28.6279 26.7968C28.8823 24.9051 29.0507 23.1351 28.3376 22.139C28.5419 18.8212 28.807 15.7936 28.9324 12.4722C28.9897 10.8814 28.721 9.38731 26.7325 9.29416C25.6182 9.244 25.5752 10.713 25.2062 11.8595C23.189 18.0975 21.1682 24.21 18.2445 29.6954C17.5315 31.0355 16.1592 31.0856 15.3746 31.4654C15.3746 31.4654 15.3531 31.4941 15.3136 31.5514H15.3101Z"
                    fill="#FFCC80" fill-rule="evenodd" id="Vector_2" stroke="#332C2B"
                    stroke-miterlimit="22.9256" stroke-width="1.13503" />
                <path
                    d="M23.2497 28.8714C24.081 26.3131 24.6614 23.9842 25.5106 22.1533C25.8402 21.4403 26.6714 21.1859 27.4669 21.4797C29.1437 22.1068 28.9538 24.3497 28.6277 26.7933C28.2515 29.613 27.9936 32.4507 27.7105 35.2848C27.3343 39.0613 25.2813 40.1541 22.3361 40.4156C21.9384 40.4514 21.7234 40.9351 21.4188 41.1931C20.2795 41.3615 19.1365 41.5299 17.9971 41.6983C17.9971 41.6983 15.2168 38.3375 15.0663 38.033C14.9122 37.7284 13.4468 34.3676 13.5077 34.1849C13.5686 34.0021 15.3708 31.4654 15.3708 31.4654C16.1555 31.082 17.5278 31.0319 18.2408 29.6954C21.168 24.21 23.1888 18.0974 25.2024 11.8595C25.5715 10.713 25.6145 9.24041 26.7288 9.29415C28.7173 9.38731 28.986 10.8814 28.9287 12.4722C28.8069 15.7936 28.5382 18.8212 28.3339 22.139"
                    id="Vector_3" stroke="#332C2B" stroke-miterlimit="22.9256"
                    stroke-width="1.13503" />
                <path clip-rule="evenodd"
                    d="M7.40918 34.1992L13.2709 30.4837C13.5396 30.3117 13.8334 30.2616 14.1451 30.3332C14.4568 30.4049 14.7005 30.5769 14.8689 30.8456L22.5077 43.0133C22.8409 43.5471 22.6904 44.2494 22.1637 44.5933L16.1444 48.5525L7.40918 34.1992Z"
                    fill="#008FD7" fill-rule="evenodd" id="Vector_4" stroke="#332C2B"
                    stroke-miterlimit="22.9256" stroke-width="1.13503" />
                <path clip-rule="evenodd"
                    d="M44.4607 31.5514L38.4019 41.2039C38.384 41.2003 38.3697 41.2003 38.3518 41.1967C38.0472 40.9387 37.8358 40.455 37.4346 40.4192C34.4858 40.1576 32.4363 39.0648 32.0601 35.2884C31.7771 32.4543 31.5227 29.6202 31.1429 26.7968C30.8885 24.9051 30.7201 23.1351 31.4331 22.139C31.2289 18.8212 30.9638 15.7936 30.8384 12.4722C30.781 10.8814 31.0497 9.38731 33.0383 9.29416C34.1526 9.244 34.1956 10.713 34.5646 11.8595C36.5818 18.0975 38.6026 24.21 41.5299 29.6954C42.2429 31.0355 43.6151 31.0856 44.3998 31.4654C44.3998 31.4654 44.4213 31.4941 44.4607 31.5514Z"
                    fill="#FFCC80" fill-rule="evenodd" id="Vector_5" stroke="#332C2B"
                    stroke-miterlimit="22.9256" stroke-width="1.13503" />
                <path
                    d="M36.5209 28.8714C35.6897 26.3131 35.1092 23.9842 34.2601 22.1533C33.9304 21.4403 33.0992 21.1859 32.3038 21.4797C30.627 22.1068 30.8169 24.3497 31.1429 26.7933C31.5227 29.613 31.7771 32.4507 32.0601 35.2848C32.4363 39.0613 34.4894 40.1541 37.4346 40.4156C37.8323 40.4514 38.0472 40.9351 38.3518 41.1931C39.4912 41.3615 40.6341 41.5299 41.7735 41.6983C41.7735 41.6983 44.5539 38.3375 44.7043 38.033C44.8584 37.7284 46.3238 34.3676 46.2629 34.1849C46.202 34.0021 44.3998 31.4654 44.3998 31.4654C43.6151 31.082 42.2429 31.0319 41.5299 29.6954C38.6026 24.21 36.5818 18.0974 34.5646 11.8595C34.1956 10.713 34.1526 9.24041 33.0383 9.29415C31.0497 9.38731 30.781 10.8814 30.8384 12.4722C30.9602 15.7936 31.2289 18.8212 31.4331 22.139"
                    id="Vector_6" stroke="#332C2B" stroke-miterlimit="22.9256"
                    stroke-width="1.13503" />
                <path clip-rule="evenodd"
                    d="M52.3613 34.1992L46.4996 30.4837C46.2309 30.3117 45.9371 30.2616 45.6254 30.3332C45.3136 30.4049 45.07 30.5769 44.9016 30.8456L37.2628 43.0133C36.9296 43.5471 37.08 44.2494 37.6067 44.5933L43.6261 48.5525L52.3613 34.1992Z"
                    fill="#008FD7" fill-rule="evenodd" id="Vector_7" stroke="#332C2B"
                    stroke-miterlimit="22.9256" stroke-width="1.13503" />
            </g>
        </g>
    </g>
</svg>
