<svg fill="none" height="60" viewBox="0 0 60 60" width="60" xmlns="http://www.w3.org/2000/svg">
    <g id="Group 57">
        <g id="Layer_x0020_1">
            <g id="_2562525272512">
                <path
                    d="M30 60C46.5685 60 60 46.5685 60 30C60 13.4315 46.5685 0 30 0C13.4315 0 0 13.4315 0 30C0 46.5685 13.4315 60 30 60Z"
                    fill="#CEE1F4" id="Vector" />
                <path clip-rule="evenodd"
                    d="M14.5304 27.2767C14.6243 25.0384 14.7668 23.5555 14.7802 21.316C14.7875 20.2498 14.4878 19.4919 13.9529 19.0252C13.7092 18.812 13.3924 18.7511 13.0853 18.8583C12.7795 18.9655 12.5699 19.2104 12.5114 19.5297C11.8876 22.984 11.2613 26.4579 10.5631 29.9196C10.0197 32.6197 10.4815 34.9056 11.9497 36.7918C13.1913 38.3892 14.3757 40.0524 15.8184 41.4695C16.9942 42.6246 17.6765 43.9844 17.4511 46.3665C17.4572 46.3641 17.4633 46.3604 17.4694 46.3568L24.7132 42.7148C24.9289 39.3445 24.0235 36.7711 21.8254 35.5782C20.5619 34.8934 19.9392 33.8236 19.3994 31.9983C18.9949 30.6312 18.0798 29.4809 17.205 28.4184C16.3874 27.4254 15.4735 27.1037 14.5292 27.2755L14.5304 27.2767Z"
                    fill="#FDDBBC" fill-rule="evenodd" id="Vector_2" stroke="#332C2B"
                    stroke-miterlimit="22.9256" stroke-width="1.13375" />
                <path
                    d="M16.6287 35.003C16.0621 33.0498 15.1044 30.9736 13.6824 28.6633C13.535 28.4245 13.5106 28.1577 13.6081 27.8957C13.7068 27.6337 13.903 27.4497 14.1698 27.3657C15.2421 27.033 16.2839 27.3011 17.2063 28.4196C18.0811 29.4822 18.9974 30.6324 19.4007 31.9995C19.9405 33.826 20.5631 34.8946 21.8267 35.5806C24.026 36.7723 24.9314 39.3469 24.7145 42.7172C22.6674 44.1136 19.9868 45.3674 17.4524 46.369C17.6778 43.9868 16.9955 42.627 15.8196 41.4707C14.377 40.0536 13.1926 38.3904 11.951 36.793C10.4839 34.9068 10.0209 32.6209 10.5644 29.9208C11.2613 26.4579 11.8876 22.9853 12.5127 19.5309C12.57 19.2117 12.7795 18.9667 13.0866 18.8595C13.3924 18.7523 13.7092 18.8132 13.9541 19.0264C14.4891 19.4931 14.7888 20.251 14.7815 21.3172C14.7669 23.5567 14.6255 25.0396 14.5305 27.2779"
                    id="Vector_3" stroke="#332C2B" stroke-linecap="round" stroke-linejoin="round"
                    stroke-miterlimit="22.9256" stroke-width="1.13375" />
                <g id="Group">
                    <path clip-rule="evenodd"
                        d="M30.045 27.6739C8.50724 14.9238 25.0785 2.00439 30.045 13.2034C35.0114 2.00439 51.5827 14.9238 30.045 27.6739Z"
                        fill="#EA5167" fill-rule="evenodd" id="Vector_4" stroke="#332C2B"
                        stroke-miterlimit="22.9256" stroke-width="1.13375" />
                    <path d="M31.0835 23.9466C31.3357 23.7395 35.5748 21.0552 38.465 15.4636"
                        id="Vector_5" stroke="#332C2B" stroke-linecap="round"
                        stroke-linejoin="round" stroke-miterlimit="22.9256"
                        stroke-width="1.13375" />
                </g>
                <path clip-rule="evenodd"
                    d="M19.8108 50.9285L27.3385 47.0988C27.6638 46.9331 27.8844 46.6736 27.994 46.3263C28.1049 45.979 28.0745 45.6391 27.9051 45.3162L26.7573 43.1327C26.4247 42.4991 25.6424 42.2493 25.0039 42.5698L17.4701 46.358C17.1436 46.5225 16.923 46.7808 16.8109 47.1268C16.6988 47.4741 16.7268 47.8128 16.895 48.137L18.0501 50.3619C18.3815 51.0016 19.1699 51.255 19.812 50.9272L19.8108 50.9285Z"
                    fill="#008FD7" fill-rule="evenodd" id="Vector_6" stroke="#332C2B"
                    stroke-miterlimit="22.9256" stroke-width="1.13375" />
                <path clip-rule="evenodd"
                    d="M45.4696 27.2767C45.3758 25.0384 45.2332 23.5555 45.2198 21.316C45.2125 20.2498 45.5122 19.4919 46.0472 19.0252C46.2908 18.812 46.6076 18.7511 46.9147 18.8583C47.2205 18.9655 47.4301 19.2104 47.4886 19.5297C48.1125 22.984 48.7388 26.4579 49.4369 29.9196C49.9804 32.6197 49.5186 34.9056 48.0503 36.7918C46.8087 38.3892 45.6243 40.0524 44.1817 41.4695C43.0058 42.6246 42.3235 43.9844 42.5489 46.3665C42.5428 46.3641 42.5367 46.3604 42.5306 46.3568L35.2868 42.7148C35.0712 39.3445 35.9765 36.7711 38.1746 35.5782C39.4382 34.8934 40.0608 33.8236 40.6006 31.9983C41.0051 30.6312 41.9202 29.4809 42.7951 28.4184C43.6126 27.4254 44.5265 27.1037 45.4708 27.2755L45.4696 27.2767Z"
                    fill="#FDDBBC" fill-rule="evenodd" id="Vector_7" stroke="#332C2B"
                    stroke-miterlimit="22.9256" stroke-width="1.13375" />
                <path
                    d="M43.3715 35.003C43.938 33.0498 44.8958 30.9736 46.3177 28.6633C46.4652 28.4245 46.4895 28.1577 46.392 27.8957C46.2934 27.6337 46.0972 27.4497 45.8303 27.3657C44.7581 27.033 43.7163 27.3011 42.7939 28.4196C41.919 29.4822 41.0028 30.6324 40.5994 31.9995C40.0597 33.826 39.437 34.8946 38.1735 35.5806C35.9741 36.7723 35.0688 39.3469 35.2857 42.7172C37.3327 44.1136 40.0134 45.3674 42.5478 46.369C42.3224 43.9868 43.0047 42.627 44.1805 41.4707C45.6232 40.0536 46.8075 38.3904 48.0492 36.793C49.5162 34.9068 49.9792 32.6209 49.4358 29.9208C48.7388 26.4579 48.1125 22.9853 47.4875 19.5309C47.4302 19.2117 47.2206 18.9667 46.9136 18.8595C46.6077 18.7523 46.2909 18.8132 46.046 19.0264C45.5111 19.4931 45.2113 20.251 45.2187 21.3172C45.2333 23.5567 45.3746 25.0396 45.4697 27.2779"
                    id="Vector_8" stroke="#332C2B" stroke-linecap="round" stroke-linejoin="round"
                    stroke-miterlimit="22.9256" stroke-width="1.13375" />
                <path clip-rule="evenodd"
                    d="M40.1876 50.9285L32.6599 47.0988C32.3346 46.9331 32.114 46.6736 32.0044 46.3263C31.8935 45.979 31.9239 45.6391 32.0933 45.3162L33.2411 43.1327C33.5737 42.4991 34.356 42.2493 34.9945 42.5698L42.5283 46.358C42.8548 46.5225 43.0754 46.7808 43.1875 47.1268C43.2996 47.4741 43.2716 47.8128 43.1034 48.137L41.9483 50.3619C41.6169 51.0016 40.8285 51.255 40.1864 50.9272L40.1876 50.9285Z"
                    fill="#008FD7" fill-rule="evenodd" id="Vector_9" stroke="#332C2B"
                    stroke-miterlimit="22.9256" stroke-width="1.13375" />
            </g>
        </g>
    </g>
</svg>
