<svg fill="none" height="60" viewBox="0 0 60 60" width="60" xmlns="http://www.w3.org/2000/svg">
    <g id="Group 60">
        <g id="Layer_x0020_1">
            <g id="_2562764633040">
                <path
                    d="M30 60C46.5685 60 60 46.5685 60 30C60 13.4315 46.5685 0 30 0C13.4315 0 0 13.4315 0 30C0 46.5685 13.4315 60 30 60Z"
                    fill="#E6EDB7" id="Vector" />
                <path
                    d="M23.0454 15.0221C25.6186 15.0221 27.7045 12.9361 27.7045 10.3629C27.7045 7.78975 25.6186 5.70378 23.0454 5.70378C20.4722 5.70378 18.3862 7.78975 18.3862 10.3629C18.3862 12.9361 20.4722 15.0221 23.0454 15.0221Z"
                    fill="#FFCC80" id="Vector_2" stroke="#332C2B" stroke-linecap="round"
                    stroke-linejoin="round" stroke-miterlimit="22.9256" stroke-width="1.13365" />
                <path clip-rule="evenodd"
                    d="M19.8282 32.207C19.8282 31.3634 17.1455 22.1187 16.1205 18.6023H10.147V16.1501H17.685L21.8537 31.2849L19.8331 32.2021L19.8282 32.207Z"
                    fill="#4E6269" fill-rule="evenodd" id="Vector_3" stroke="#332C2B"
                    stroke-linecap="round" stroke-linejoin="round" stroke-miterlimit="22.9256"
                    stroke-width="1.13365" />
                <path clip-rule="evenodd"
                    d="M23.3987 30.5248C22.4816 27.2977 21.3487 24.1246 20.6424 20.8435C19.4261 15.2231 25.1054 15.0907 27.9352 17.5331C30.5394 19.7842 31.5939 24.3698 32.5306 30.2158C35.3898 30.2158 38.2589 30.0147 41.1083 30.2158C43.33 30.3727 44.3992 31.6282 44.7229 33.281C45.6547 38.0383 46.7631 42.7612 47.7881 47.4988C46.1353 47.641 44.4776 47.7832 42.8249 47.9255C41.9666 45.2477 41.1083 42.5748 40.2501 39.897C39.6763 38.6905 39.1074 37.489 38.5335 36.2825C37.126 36.1403 35.7135 35.998 34.306 35.8558C33.3055 34.5267 32.305 33.2025 31.3045 31.8735C29.9166 31.5645 28.5286 31.2604 27.1358 30.9563C25.8901 30.8141 24.6444 30.6719 23.3987 30.5297V30.5248Z"
                    fill="#008FD7" fill-rule="evenodd" id="Vector_4" stroke="#332C2B"
                    stroke-linecap="round" stroke-linejoin="round" stroke-miterlimit="22.9256"
                    stroke-width="1.13365" />
                <path clip-rule="evenodd"
                    d="M22.4916 19.9853L24.7574 27.3369C25.086 28.3276 25.7383 28.9848 26.7191 28.9897L34.8064 28.9259C36.3317 28.9161 36.4935 25.8264 34.5612 25.8607L27.5774 25.9833L25.5568 19.0584C24.9732 17.0574 21.7167 17.4595 22.4916 19.9755V19.9853Z"
                    fill="#FFCC80" fill-rule="evenodd" id="Vector_5" stroke="#332C2B"
                    stroke-linecap="round" stroke-linejoin="round" stroke-miterlimit="22.9256"
                    stroke-width="1.13365" />
                <path clip-rule="evenodd"
                    d="M39.9267 35.2133H34.1641L35.4539 37.2339H38.578L42.1337 48.9406H49.7943V46.7925H43.5902L39.9267 35.2133Z"
                    fill="#4E6269" fill-rule="evenodd" id="Vector_6" stroke="#332C2B"
                    stroke-linecap="round" stroke-linejoin="round" stroke-miterlimit="22.9256"
                    stroke-width="1.13365" />
                <path
                    d="M25.3951 52.3394C31.7306 52.3394 36.8664 47.2035 36.8664 40.8681C36.8664 34.5326 31.7306 29.3968 25.3951 29.3968C19.0597 29.3968 13.9238 34.5326 13.9238 40.8681C13.9238 47.2035 19.0597 52.3394 25.3951 52.3394Z"
                    fill="#4E6269" id="Vector_7" stroke="#332C2B" stroke-linecap="round"
                    stroke-linejoin="round" stroke-miterlimit="22.9256" stroke-width="1.13365" />
                <path
                    d="M25.3947 50.3482C30.6304 50.3482 34.8748 46.1038 34.8748 40.8681C34.8748 35.6323 30.6304 31.3879 25.3947 31.3879C20.159 31.3879 15.9146 35.6323 15.9146 40.8681C15.9146 46.1038 20.159 50.3482 25.3947 50.3482Z"
                    fill="#B0BEC5" id="Vector_8" stroke="#332C2B" stroke-linecap="round"
                    stroke-linejoin="round" stroke-miterlimit="22.9256" stroke-width="1.13365" />
                <path
                    d="M25.3948 43.3693C26.7762 43.3693 27.896 42.2495 27.896 40.8681C27.896 39.4867 26.7762 38.3669 25.3948 38.3669C24.0134 38.3669 22.8936 39.4867 22.8936 40.8681C22.8936 42.2495 24.0134 43.3693 25.3948 43.3693Z"
                    fill="#4E6269" id="Vector_9" stroke="#332C2B" stroke-linecap="round"
                    stroke-linejoin="round" stroke-miterlimit="22.9256" stroke-width="1.13365" />
            </g>
        </g>
    </g>
</svg>
